# xmcd
#
# Track frame offsets: 
#        150
#        24135
#        45712
#        65905
#        93735
#        118190
#        137712
#        157002
#        176232
#        195482
#        215460
#        231597
#        249952
#        271310
#        291540
#        310322
#
# Disc length: 4399 seconds
#
# Revision: 6
# Processed by: cddbd v1.5.2PL0 Copyright (c) Steve Scherf et al.
# Submitted via: ExactAudioCopy v0.99pb5
#
DISCID=fa112d10
DTITLE=Various Artist - 연가(戀歌) CD3
DYEAR=2001
DGENRE=Ballad
TTITLE0=신승훈 - 전설속의 누군가처럼
TTITLE1=신승훈 - 이별 그 후
TTITLE2=조성모 - For You
TTITLE3=조성모 - 가시나무
TTITLE4=조성모 - 아시나요
TTITLE5=김경호 - 나를 슬프게 하는 사람들
TTITLE6=정재욱 - 어리석은 이별
TTITLE7=정재욱 - 다음 사람에게는
TTITLE8=임창정 - 나의 연인
TTITLE9=박완규 - 천년의 사랑
TTITLE10=이승철 - 널 보낸 이유
TTITLE11=박상민 - 애원
TTITLE12=김광석 - 이등병의 편지
TTITLE13=조관우 - 모래성
TTITLE14=조관우 - 꽃밭에서
TTITLE15=홍경민 - 내 남은 사랑을 위해
EXTD=
EXTT0=
EXTT1=
EXTT2=
EXTT3=
EXTT4=
EXTT5=
EXTT6=
EXTT7=
EXTT8=
EXTT9=
EXTT10=
EXTT11=
EXTT12=
EXTT13=
EXTT14=
EXTT15=
PLAYORDER=
